<?xml version="1.0" encoding="UTF-8" standalone="no"?>
<svg class="logo" viewBox="0 0 1196 711" version="1.1" xmlns="http://www.w3.org/2000/svg" xmlns:xlink="http://www.w3.org/1999/xlink">
  <title>Logo</title>
  <g class="logo-canvas" transform="translate(633.306745, 335.542646) rotate(-11.000000) translate(-633.306745, -335.542646) translate(33.306745, 57.042646)">

    <g class="teacup" transform="translate(-0.000000, 0.000000)">
      <g class="e" transform="translate(222.421525, 66.480645)">
        <path d="M31.52287,51.4434419 C47.0349776,63.0973194 66.7910314,65.9200516 83.9748879,74.9362645 C103.555157,85.2102194 121.067265,100.136023 139.836771,109.536745 C143.051121,111.146655 151.165919,91.9678871 151.777578,89.8872226 C155.388341,77.5883032 155.861883,62.5421161 155.189238,49.7347097 C153.149776,10.9118097 72.3336323,-7.48356452 46.0215247,13.853129 C2.33183857,49.2801258 -21.0852018,142.762694 46.4484305,169.338781 C59.4421525,174.4524 120.220628,191.888297 120.220628,161.650384" id="Shape"></path>
        <path d="M18.303139,44.1808806 C30.4089686,46.8760419 98.3802691,90.6993645 115.103139,101.420716 C117.390135,102.885087 134.443049,123.424013 140.690583,114.662942 C152.613453,97.9421613 162.523767,58.501171 150.923767,39.9099484 C133.888789,12.604371 74.1058296,-4.88183548 49.8600897,19.4051613 C24.5578475,44.7486613 2.76950673,107.073368 17.4493274,142.000861 C35.2304933,184.300519 90.2529148,191.66909 120.647534,161.222752" id="Shape"></path>
        <path d="M27.3506726,56.7008032 C35.2609865,85.7546419 82.1112108,90.3795387 104.057399,102.665881 C116.387444,109.56729 125.465471,117.255687 135.219731,127.362542 C138.647534,130.914765 142.33722,134.240594 145.149776,138.339035 C145.797309,139.282342 146.782063,142.144603 147.205381,141.084506 C152.520179,127.772206 85.664574,91.1036387 76.3192825,86.8866097 C68.2798206,83.255329 64.1811659,82.1521097 57.1426009,77.9674226 C55.1802691,76.7995194 49.9390135,72.3543 51.664574,73.8510129 C66.2206278,86.4877258 84.6798206,94.2659613 101.660987,103.009065 C113.632287,109.170203 126.285202,113.396216 137.616143,120.845642 C137.738117,120.9247 153.420628,132.486942 153.711211,130.4494 C157.965919,100.622948 156.817937,45.7386839 137.275336,21.7122194 C109.1713,-12.8379516 58.6977578,-2.04113548 36.9399103,33.3750806 C31.2089686,42.7021355 21.5300448,57.9136258 21.5300448,69.3914194 C21.5300448,70.9923452 21.5300448,66.1895677 21.5300448,64.5904387 L21.5300448,52.5843935 C22.7103139,44.8906065 27.4295964,31.2836355 33.5156951,26.1718129 C51.935426,10.6961968 78.4502242,15.3714032 100.290583,15.8798903 C142.916592,16.8735065 143.76861,44.4827387 149.944395,80.3679129 C150.902242,85.9307258 155.289686,107.944803 150.629596,112.612823 C150.468161,112.774532 150.629596,112.154645 150.629596,111.926455 C150.629596,106.561287 151.858296,102.667677 153.36861,97.5199194 C156.744395,86.0259548 158.486099,73.1233194 158.84843,61.1586 C159.583857,36.8698065 133.216143,17.6119806 111.591031,10.3925419 C97.8080717,5.78920645 70.4358744,1.71591935 56.8017937,7.99025484 C4.26367713,32.1694452 -9.75605381,153.121097 52.3497758,178.816765 C70.9632287,186.517739 91.967713,184.710184 109.194619,174.357171 C113.307623,171.88481 116.920179,167.254523 119.124664,163.037494 C120.434081,160.536384 122.206278,152.323329 122.206278,155.147858 C122.206278,177.895019 81.6520179,183.270968 65.7040359,180.187703 C49.503139,177.055926 34.0825112,165.632035 21.8726457,155.147858 C-1.51210762,135.068906 -3.01524664,104.049397 3.38116592,75.2237484 C4.12914798,71.8476097 17.1336323,45.7800097 22.2152466,50.8684742 C26.6206278,55.2831484 10.9130045,93.7538806 10.2295964,103.350452 C6.09147982,161.379071 47.9659193,180.530887 101.318386,180.530887" id="Shape"></path>
      </g>

      <path d="M712.317489,199.984561 C712.317489,248.980797 663.323767,304.096845 613.011659,268.098474 C574.3713,240.45151 553.974888,182.333052 552.349776,136.770452 C550.191928,76.2173645 602.389238,23.9725613 663.397309,33.3750806 C685.469058,36.7763742 704.556054,61.9707419 711.827803,81.3974645 C715.208969,90.4298484 715.252018,101.5968 715.252018,111.290397 L715.252018,112.760158 C715.252018,85.8642452 705.467265,61.8000484 715.252018,34.8448419 C716.125561,32.4407581 720.489686,25.0973419 719.655605,22.5944355 C719.067265,20.8282065 712.486099,21.6349581 714.274439,21.1246742 C792.810762,-1.35297097 769.036771,42.2493484 762.215247,94.6289097 C753.544395,161.222752 734.252915,282.183387 835.106726,273.000074 C919.210762,265.340426 900.658296,170.698939 900.658296,111.290397 C900.658296,89.7255129 906.884305,50.0060226 899.191031,29.4545194 C896.434081,22.0877452 866.690583,21.6133968 869.838565,21.6133968 C907.174888,21.6133968 945.072646,18.8553484 982.355157,20.6341548 C1003.64305,21.6493323 1037.70404,34.0003581 1056.71211,44.1557258 C1066.09686,49.1687258 1069.64664,59.1857419 1075.79013,67.1867774 C1118.39641,122.667571 982.973991,179.1869 954.469955,155.392219 C944.767713,147.292361 948.111211,88.189271 948.111211,74.5373806 C948.111211,60.7004226 943.079821,25.2536613 951.04574,13.2835516 C952.70852,10.7842387 955.838565,29.4724871 955.93722,30.4355581 C957.104933,41.7444548 957.992825,53.376771 958.383857,64.7359774 C959.580269,99.4837935 957.049327,134.371758 958.383857,169.112387 C959.099552,187.732358 966.09148,245.92089 956.916592,261.23839 C953.418834,267.07611 930.437668,268.624929 924.13991,270.058755 C919.454709,271.126039 917.930045,270.993077 913.377578,271.528516 C911.24843,271.780065 904.873543,272.509555 907.018834,272.509555 C939.646637,272.509555 972.247534,271.528516 1004.8574,271.528516" id="Shape"></path>
      <path d="M711.827803,202.435361 C711.827803,258.636661 658.405381,301.414261 605.673543,267.609752 C593.928251,260.079471 587.361435,246.5282 579.745291,235.267816 C530.66009,162.683529 549.521076,56.2030968 637.470852,23.5736774 C674.082511,9.99186129 697.070852,36.6020871 709.870852,68.6565387 C714.38565,79.9582484 713.180269,93.1124323 717.698655,104.428516 C722.595516,116.693297 724.059193,120.015532 724.059193,119.620242 C724.059193,99.6544871 723.756054,79.7282613 722.102242,59.8361742 C721.454709,52.0543452 719.655605,44.0569032 719.655605,36.3146032 C719.655605,33.42 714.319283,27.9847581 717.208969,27.9847581 C733.110314,27.9847581 748.141704,22.5944355 763.682511,22.5944355 L788.143498,22.5944355 C788.143498,22.5944355 775.915695,25.3812323 771.510314,29.4545194 C755.594619,44.1718968 763.086996,83.3918839 761.727354,102.468235 C759.433184,134.630494 752.728251,225.570626 766.618834,253.397268 C776.188341,272.570645 817.565919,282.948813 837.063677,278.879119 C914.102242,262.801584 892.342601,165.808119 892.342601,108.839597 C892.342601,90.8053742 899.689686,52.5035387 890.875336,36.3146032 C886.412556,28.1213129 862.173991,26.8384161 863.479821,29.4545194 C866.798206,36.1043806 891.287892,29.5964645 895.766816,28.4752774 C927.24843,20.5910323 953.088789,18.2049161 984.310314,26.0244774 C1006.15785,31.4956548 1034.09148,34.2087839 1053.77758,45.6254871 C1133.65561,91.9499194 1033.91211,185.179142 975.504933,164.703103 C936.466368,151.015277 951.067265,87.6053194 952.023318,57.8758935 C952.116592,54.9938677 951.956951,17.2041129 952.023318,17.2041129 C954.525561,17.2041129 958.581166,41.9474903 958.873543,43.6652065 C963.004484,67.9072839 962.579372,91.7720387 963.275336,116.1902 C963.83139,135.640281 972.880717,252.597703 960.340807,265.158952 C954.697758,270.811603 910.32287,264.095261 897.723767,272.509555 C897.244843,272.829381 933.352466,276.974539 937.836771,277.409358 C958.747982,279.436119 999.5713,290.367694 1017.57668,275.939597" id="Shape"></path>

      <g transform="translate(-0.000000, 17.967742)" id="Shape">
        <path d="M8.74331839,99.1010806 C8.74331839,82.8672258 -0.670672646,26.7467806 7.46403587,14.5233258 C21.4446637,-6.48276129 63.8852018,5.53945484 84.2224215,6.40729677 C98.6493274,7.02179355 112.880717,9.02160323 127.293274,9.82476129 C208.661883,14.3526323 186.914798,6.55463226 195.095964,80.3068226 C196.195516,90.2196258 201.919283,100.926603 201.919283,110.634574"></path>
        <path d="M17.6984753,101.665077 C17.6984753,78.1974097 19.3657399,54.1368065 17.6984753,30.7553839 C17.5603587,28.8184613 13.6846637,9.27135484 15.9928251,8.11602903 C28.3978475,1.90278387 74.8538117,1.70873226 89.7668161,1.70873226 L128.572197,1.70873226 C136.364126,1.70873226 143.863677,2.24057742 151.6,2.98983226 C211.976682,8.84192581 184.200897,-10.6602613 189.55157,67.0645968 C190.489686,80.6823484 193.390135,95.0277935 193.390135,108.49821"></path>
        <path d="M101.280717,0.427632258 C101.280717,41.7264871 98.2852018,82.9840161 99.5748879,124.304432 C100.927354,167.698326 109.808072,210.024935 109.808072,253.733265"></path>
        <path d="M108.102242,0.427632258 L108.102242,168.302042 C108.102242,192.278197 113.962332,225.389152 104.690583,248.607068"></path>
        <path d="M34.3295067,255.014365 C70.6206278,255.014365 105.836771,246.898335 141.791928,246.898335"></path>
        <path d="M50.5345291,255.014365 C79.3470852,255.014365 116.468161,260.054316 144.349776,250.743432"></path>
        <path d="M19.1318386,107.134458 C16.2724664,81.3579355 0.840717489,53.0605387 7.92878924,25.5483323 C11.856861,10.3009065 33.1174888,11.5496645 44.8681614,9.47259355 C79.9156951,3.27731613 113.187444,1.89020645 148.72287,1.89020645 C157.379372,1.89020645 173.910314,-1.48413548 182.331839,1.89020645 C183.013453,2.16331613 185.90852,21.739171 186.267265,23.1208903 C192.195516,45.8788323 194.412556,68.4732677 197.470852,91.666029 C198.389238,98.6249355 200.801794,130.884219 200.801794,125.939497"></path>
        <path d="M4.59820628,105.314326 C4.59820628,83.7081161 -5.40358744,31.7795452 5.80932735,14.9311935 C13.7623318,2.98264516 35.201435,6.74329355 46.9883408,6.74329355 C84.0286996,6.74329355 121.219731,5.01839032 158.109417,8.25977097 C167.55157,9.08988065 191.04574,4.36616129 197.470852,14.0220258 C202.145291,21.0456161 199.287892,35.6497968 199.287892,43.4424065 C199.287892,70.5162 200.220628,98.0661387 197.773991,125.028532"></path>
        <path d="M12.4704933,109.863758 C27.6342601,88.1659129 4.49076233,36.0630548 13.6816143,20.9971032 C22.4215247,6.67142258 84.6152466,9.87147742 98.7641256,9.16893871 C121.809865,8.02619032 144.758744,7.6309 167.797309,6.74329355 C172.710314,6.55283548 191.772197,1.02416129 196.26009,4.61950645 C199.352466,7.09905484 196.563229,31.3357419 196.563229,34.9490548 C196.563229,66.3422935 195.350673,97.6079613 195.350673,128.972452"></path>
        <path d="M95.6753363,7.10803871 C113.752466,49.3591839 101.153363,148.282384 101.153363,197.143861 C101.153363,202.852213 106.999103,250.630235 103.55157,254.085432 C101.928251,255.709716 103.956951,249.505455 104.234978,247.225348 C105.982063,232.933806 105.605381,241.358881 105.605381,228.357423 L105.605381,182.735529 C105.605381,139.842935 106.157848,96.9862774 106.633184,54.1026677 C106.717489,46.4915323 113.526457,14.0292129 108.344395,7.10803871 C106.746188,4.97167419 105.040359,24.6553355 104.920179,26.6605355 C103.996413,42.1720871 104.46278,57.7860548 103.892377,73.3119806 C102.46278,112.334323 98.626009,151.241671 97.729148,190.281981 C97.4188341,203.781145 97.5946188,217.264139 97.3865471,230.75971 C97.2825112,237.520971 96.0161435,250.998574 96.0161435,250.998574 C96.0161435,250.998574 97.0923767,235.670294 97.729148,228.016035"></path>
        <path d="M38.4869955,264.375558 C61.3506726,270.101877 90.864574,264.490552 113.824215,261.2887 C120.365919,260.375939 126.817937,258.890006 133.343498,257.858658 C135.833184,257.465165 143.399103,257.17229 140.87713,257.17229 C126.724664,257.17229 112.143498,257.262129 98.0717489,258.545026 C92.2188341,259.076871 86.4053812,259.986039 80.6080717,260.945516 C74.6439462,261.931945 68.7246637,263.175313 62.8,264.375558 C32.6392825,270.482794 60.6475336,265.480574 40.1992825,268.491968 C38.8346188,268.693206 35.0658296,270.021023 36.4324664,270.207887 C47.6789238,271.744129 60.1058296,270.549274 71.361435,270.549274 C94.9470852,270.549274 115.895964,269.654481 138.821525,265.061926"></path>
      </g>

      <path d="M717.517489,197.246277 C717.517489,232.200723 659.347085,288.369681 622.060987,272.735948 C575.257399,253.109784 554.600897,178.146568 560.33722,132.183287 C567.519283,74.6272194 607.530045,21.3079452 671.225112,30.8110839 C690.166816,33.6374097 708.991928,61.8018452 712.493274,79.3401581 C713.991031,86.8398935 714.272646,94.4797774 715.723767,101.9867 C716.303139,104.985516 717.517489,114.028681 717.517489,110.974165 C717.517489,88.0257645 690.098655,19.678271 664.046637,14.9940806 C606.527354,4.65364516 602.030493,47.2228194 589.404484,88.3276226 C580.267265,118.071423 573.655605,146.927616 571.820628,178.195081 C570.774888,195.997519 568.947085,216.673 575.76861,233.553694 C587.870852,263.507716 660.378475,278.025652 686.297758,262.311065 C696.455605,256.151723 707.526457,241.324742 712.134529,230.317703 C714.044843,225.755694 714.792825,221.199074 715.006278,216.299271 C715.119283,213.6652 715.006278,205.754003 715.006278,208.389871 C715.006278,265.435655 646.774888,292.854429 599.811659,266.265765 C555.047534,240.920468 536.530942,158.240106 545.982063,111.692874 C555.259193,66.0062968 608.532735,17.7179903 656.511211,29.7330194 C681.390135,35.9642323 697.325561,57.7752742 705.675336,80.7775774 C708.303139,88.0149839 709.623318,94.037771 709.623318,101.627345 C709.623318,105.763519 709.298655,117.158661 711.775785,113.849003 C719.38296,103.690042 714.647534,54.3434355 714.647534,40.5172581 C714.647534,37.1734613 712.111211,18.0288323 715.365022,16.0739419 C716.09148,15.6373258 718.215247,16.0344129 718.593722,16.7926516 C721.849327,23.3149419 774.138117,26.9048968 781.395516,22.5441258 C782.920179,21.627771 779.097758,19.6099935 777.447534,18.9487806 C767.083408,14.7964355 756.893274,14.498171 745.867265,13.9160161 C741.560538,13.6896226 728.661883,12.7193645 732.948879,13.1973065 C748.261883,14.9024452 765.352466,16.0308194 780.678027,18.5894258 C784.265471,19.1877516 775.46009,23.6707032 772.782063,26.1376742 C768.301345,30.2684581 765.680717,35.3497355 764.170404,41.2359677 C759.698655,58.6503032 757.402691,78.0123419 755.915695,95.875871 C751.203587,152.515584 738.197309,262.190681 811.539013,283.520187 C833.408072,289.878971 856.717489,269.981494 867.879821,252.245535 C884.970404,225.090887 901.528251,122.148303 903.766816,87.6071161 C904.466368,76.8103 909.539013,22.8028613 899.46009,16.0739419 C899.408072,16.0380065 901.126457,41.8073419 901.253812,42.6733871 C904.317489,63.4710484 907.549776,84.3783129 910.226009,105.22269 C913.671749,132.0647 917.334529,163.554965 912.73722,190.416739 C906.56861,226.465419 877.580269,280.997516 833.429596,275.970142 C763.09417,267.965513 761.773991,140.91561 763.451121,90.4837516 C763.668161,83.9740387 768.21704,28.8849419 764.170404,26.8563839 C763.95157,26.7485774 762.769507,51.3266516 762.733632,53.4576258 C762.398206,73.6964903 762.733632,93.9694935 762.733632,114.208358 C762.733632,185.037197 746.934529,271.395555 840.247534,277.768713 C913.660987,282.781713 907.38296,151.096132 901.612556,104.863335 C899.230493,85.7726097 895.605381,66.3620581 892.283408,47.3467968 C891.35426,42.0337355 885.714798,26.3425065 879.721973,24.3409 C879.363229,24.2205161 878.267265,23.9815452 878.64574,23.9815452 C896.017937,23.9815452 913.006278,24.6679129 930.32287,22.9034806 C938.823318,22.0374355 938.213453,22.184771 945.393722,22.184771 C946.496861,22.184771 949.687892,21.7553419 948.624215,21.4660613 C929.289686,16.1835452 903.27713,20.7455548 883.311211,20.7455548 C875.987444,20.7455548 868.376682,21.2001387 861.061883,20.3862 C858.186547,20.0663742 849.556951,19.3081355 852.450224,19.3081355 C871.895964,19.3081355 891.506726,20.0627806 910.943498,20.7455548 C934.904036,21.5882419 937.565919,22.184771 934.627803,22.184771 C919.982063,22.184771 907.085202,23.8683484 892.642152,26.1376742 C880.997309,27.9685871 889.865471,26.5347613 880.082511,27.9362452 C878.914798,28.1033452 875.748879,28.9586097 876.852018,29.3736645 C891.078027,34.717271 949.465471,22.2674226 950.417937,22.9034806 C952.997309,24.6247903 951.723767,66.187771 951.854709,71.4325548 C953.002691,117.451535 962.979372,162.52721 962.979372,209.108581 C962.979372,219.829932 961.634081,260.018381 958.672646,260.51429 C949.890583,261.980458 951.135426,227.426694 951.135426,223.847519 C951.135426,199.975577 956.299552,176.658839 955.800897,152.671903 C955.408072,133.78601 949.761435,114.725829 947.547982,95.875871 C945.463677,78.1381161 946.111211,60.1344387 946.111211,42.3140323 C946.111211,39.4625516 950.29417,11.9952645 950.776682,12.4785968 C954.249327,15.9571516 951.051121,22.3177323 951.49417,27.2175355 C953.411659,48.3332258 958.706726,68.8308258 961.901345,89.7650419 C969.298655,138.215058 967.723767,186.296735 961.542601,234.272403 C960.588341,241.680503 965.273543,260.587958 961.901345,267.343829 C960.086099,270.982297 931.546188,276.113884 928.527354,276.690648 C920.502242,278.2215 922.468161,278.013074 915.250224,278.846777 C913.058296,279.100123 906.591928,280.100926 908.791031,280.284197 C929.458296,282.0091 950.283408,278.487423 970.873543,278.487423" id="Shape"></path>
      <path d="M960.812556,20.9773387 C981.182063,20.9773387 1005.20538,17.1789581 1025.11031,20.9773387 C1051.07444,25.9310452 1079.84395,59.5486903 1076.06278,87.0034 C1069.73453,132.964884 1046.49865,148.029039 1005.29507,158.703674 C993.24843,161.822874 982.191928,164.863016 969.709417,165.184639 C962.742601,165.362519 947.741704,161.271265 951.512108,163.157877 C1023.19641,199.062816 1147.81883,134.100445 1085.76861,57.0278161 C1066.94888,33.6517839 1028.50942,32.1748355 1001.25202,31.1039581 C990.206278,30.6691387 978.739013,30.6601548 967.686099,31.1039581 C964.855605,31.2171548 959.194619,31.5082323 959.194619,31.5082323 C959.194619,31.5082323 992.977578,22.2853903 1009.7435,25.0272677 C1042.45381,30.3762645 1094.52197,52.7047774 1101.13543,90.2447806 C1107.80628,128.108203 1068.26726,159.298406 1033.60179,165.184639 C1009.69327,169.243552 983.002691,165.994984 958.791031,165.994984" id="Shape"></path>

      <g transform="translate(355.156951, 0.000000)" id="Shape">
        <path d="M2.59192825,272.369406 C15.8313901,272.369406 29.1390135,272.849145 42.3336323,271.747723 C44.4179372,271.573435 66.8789238,270.54029 66.5506726,269.882671"></path>
        <path d="M0.107623318,274.547097 C5.71479821,274.547097 60.6313901,274.566861 62.2044843,272.992887"></path>
        <path d="M27.4295964,280.456687 C29.6896861,246.497655 46.2547085,210.822703 56.9255605,178.755674 C64.3713004,156.384039 67.644843,132.001813 76.7964126,110.334513 C85.7524664,89.1307806 87.0959641,66.1302742 95.1156951,44.710929 C97.3955157,38.6180677 97.7524664,25.3129548 105.982063,23.2520548 C117.246637,20.4311194 128.611659,85.6252742 130.819731,96.9611226 C139.820628,143.165171 160.471749,186.068545 169.630493,231.938394 C171.66278,242.117119 174.907623,252.32639 178.324664,262.106232 C179.939013,266.729332 181.786547,271.311106 182.981166,276.103103 C183.086996,276.528939 184.35157,277.035629 183.912108,277.035629 L166.215247,277.035629 C166.010762,277.035629 157.565919,276.679868 158.143498,276.103103 C161.560538,272.678452 203.682511,279.003097 208.75157,273.925413"></path>
        <path d="M31.155157,278.589839 C31.155157,213.061484 72.0807175,150.522961 89.5264574,88.563 C91.7919283,80.5170452 105.104933,25.2590516 114.986547,26.6731129 C123.085202,27.8320323 134.333632,75.4788903 136.408969,82.9660484 C148.301345,125.853252 159.449327,168.346961 171.804484,211.101203 C177.408072,230.495584 192.295964,258.873835 192.295964,278.900681"></path>
        <path d="M163.730942,275.168781 C177.582063,275.168781 191.657399,273.614571 205.646637,273.614571"></path>
        <path d="M51.3381166,187.464639 L139.513901,187.464639 C142.561435,187.464639 163.420628,189.771697 163.420628,185.286948"></path>
        <path d="M53.3452915,191.731977 C76.2923767,191.731977 100.335426,182.137203 122.742601,185.344445 C134.184753,186.981306 149.252018,195.280606 161.006278,191.356452"></path>
        <path d="M56.3049327,193.304155 C69.8565022,211.291661 101.259193,193.904277 123.756054,193.904277 C132.695964,193.904277 141.644843,193.516174 150.575785,193.904277 C154.346188,194.069581 165.365022,196.703652 161.784753,195.508797 C142.195516,188.968539 122.102242,190.296355 101.73991,190.296355 L78.9219731,190.296355 L71.3165919,190.296355 C92.6565022,190.296355 114.026906,189.951374 135.365022,190.296355 C148.493274,190.508374 142.170404,190.723987 153.377578,191.097716 C155.644843,191.173181 162.392825,191.609797 160.18296,191.097716 C142.58296,187.029819 45.773991,179.325252 56.3049327,193.304155 L56.3049327,193.304155 Z"></path>
        <path d="M34.0878924,269.690416 C48.5004484,256.697942 44.4520179,238.370845 48.0986547,220.771442 C56.8376682,178.590371 71.329148,137.699384 79.7219731,95.6638516 C83.793722,75.2758548 90.0089686,56.9343839 95.3345291,37.1213548 C97.3596413,29.5856839 98.9363229,21.6637065 98.9363229,13.8639097 L98.9363229,9.05214839 C98.9363229,9.05214839 90.3479821,40.2118065 85.3273543,55.5652419 C76.6887892,81.9778226 55.7040359,114.147268 55.7040359,142.178742 C55.7040359,143.921613 55.7847534,138.678626 56.1040359,136.9663 C56.6116592,134.256765 57.4134529,131.611913 58.1058296,128.9455 C63.9121076,106.575661 58.1757848,126.708516 65.7112108,106.891894 C74.4860987,83.8213129 79.1946188,53.2689645 94.5345291,33.5116355 C95.555157,32.1981935 106.710314,14.3184935 110.145291,17.0711516 C123.121076,27.4690839 126.138117,55.0962839 130.159641,69.5998452 C141.273543,109.6733 155.316592,148.341677 165.386547,188.691835 C170.577578,209.489497 178.109417,229.320494 184.600897,249.64201 C186.816143,256.572168 189.243049,263.425065 191.006278,270.491777 C191.641256,273.039603 194.179372,280.460281 193.008072,278.111897 C186.999103,266.075306 183.117489,254.015358 178.997309,241.220529 C176.923767,234.782687 173.289686,219.745484 173.393722,220.368965 C174.678027,228.0915 179.535426,235.664903 181.799103,243.225729 C186.756951,259.781206 182.258296,244.664945 185.402691,257.260332 C198.575785,310.045965 159.76861,264.091668 144.572197,279.313939 C143.079821,280.808855 155.772197,282.630784 165.386547,283.725019 C167.386547,283.95321 200.007175,287.755184 200.613453,285.329539 C205.06009,267.512726 141.314798,279.651732 171.791928,274.101497 C177.04574,273.143816 182.175785,271.584216 187.402691,270.491777 C191.784753,269.579016 196.16861,268.606961 200.613453,268.085897 C204.764126,267.602565 213.43139,267.685216 218.226009,267.685216"></path>
        <path d="M19.67713,278.512577 C8.70134529,278.512577 58.1955157,287.850413 63.7112108,280.117097 C65.5856502,277.484823 58.5219731,275.562274 55.3040359,275.303539 C25.7811659,272.938984 -27.4726457,282.923658 27.6825112,282.923658 C42.6493274,282.923658 35.309417,283.985552 49.7004484,279.714619"></path>
        <path d="M29.8600897,262.720729 C35.1121076,204.844835 59.8834081,147.852955 71.6269058,90.9886452 C75.52287,72.1332968 81.696861,54.1044645 87.4618834,35.7504161 C89.1892377,30.2522871 90.9165919,24.746971 92.9201794,19.344071 C93.5587444,17.6245581 94.5596413,12.7804548 95.3775785,14.4209097 C102.116592,27.921871 86.8412556,61.0849323 82.8197309,73.4880645 C69.7112108,113.917281 56.993722,154.653745 47.058296,195.995723 C43.6591928,210.141726 42.1973094,224.569823 38.5955157,238.656532 C37.0511211,244.697287 35.4098655,250.712887 33.6825112,256.703332 C33.0421525,258.918755 31.7273543,265.561429 31.4977578,263.266948 C29.5946188,244.210361 39.1784753,220.446226 43.7829596,202.286229 C45.2394619,196.540145 52.5919283,168.623665 53.8834081,164.002361 C59.6484305,143.375394 66.5147982,122.883184 73.8116592,102.748532 C85.6125561,70.1837968 100.301345,39.006171 111.210762,6.21683871 C111.996413,3.85767419 111.700448,11.1867161 112.303139,13.6015806 C113.189238,17.1502097 115.451121,25.0326581 116.670852,28.6405806 C121.397309,42.6158903 126.380269,56.0665419 129.775785,70.4802645 C140.880717,117.624026 153.255605,165.70211 167.720179,211.857645 C172.066368,225.721555 177.671749,238.796681 181.370404,252.876203 C182.927354,258.805558 183.302242,259.642855 185.192825,264.634294 C186.18296,267.2486 187.528251,275.332287 187.92287,272.565255 C190.256502,256.200235 175.847534,231.737155 170.177578,217.052119 C154.251121,175.808965 143.454709,134.037558 132.504036,91.2617548 C127.088789,70.1029419 122.211659,49.2064581 113.395516,29.1885968 C110.102242,21.7104226 107.264574,14.6365226 105.205381,6.76485484 C104.584753,4.38951935 103.641256,-2.77421935 103.295067,-0.344980645 C100.278027,20.8066452 131.799103,63.3380871 138.238565,85.5192645 C144.408969,106.7769 145.637668,128.629268 150.794619,150.0558 C156.742601,174.757852 166.376682,198.595655 173.180269,223.069516 C176.7713,235.982932 176.292377,248.934081 179.46009,261.626494"></path>
      </g>
    </g>

    <g id="Gorilla" transform="translate(71.748879, 168.896774)">
      <path d="M462.218834,177.643471 C462.923767,198.006313 435.356054,213.426229 440.733632,234.976739 C446.236771,257.026752 496.73722,219.357381 502.166816,215.472755 C558.837668,174.924952 600.317489,132.368355 631.074439,69.8675645 C636.053812,59.7517258 658.252915,15.0947 643.160538,4.2960871 C630.01435,-5.11002581 603.162332,42.7686161 597.504933,50.7013742 C570.606278,88.4228516 541.626906,134.461597 533.721973,181.174132 C530.880717,197.966784 533.702242,229.593603 555.878027,233.294958 C571.775785,235.95059 578.50583,227.232642 591.463677,219.844306 C636.538117,194.143248 669.700448,146.336477 699.221525,104.167984 C713.870852,83.2445484 723.976682,59.8289871 735.478027,37.2507226 C741.766816,24.9014935 747.492377,10.8722806 743.198206,10.0116258 C724.846637,6.33542581 707.470852,30.1642452 698.550673,42.6302645 C672.163229,79.5126484 648.715695,126.029335 637.452915,170.077255 C633.66278,184.902439 622.086099,222.952726 639.131839,233.968748 C670.362332,254.150116 719.765022,194.896097 738.163229,176.466584 C746.044843,168.571558 758.855605,161.150881 768.58296,155.50901 C770.661883,154.303374 785.426009,148.826806 785.426009,148.826806 C785.426009,148.826806 775.456502,150.576865 769.813453,154.174006 C762.263677,158.985768 752.869955,163.907132 745.547982,169.067468 C723.58565,184.550271 699.558744,215.718913 677.065471,226.233635 C665.919283,231.444281 649.034978,233.526742 643.160538,220.854094 C617.549776,165.599694 649.917489,96.8497226 684.787444,55.4089226 C698.410762,39.2163935 715.863677,26.9605968 729.770404,11.3574097 C730.8,10.2038806 740.527354,-1.69076452 743.870852,4.63208387 C754.634978,25.0003161 740.471749,48.0726935 730.778475,64.8240194 C698.120179,121.255306 664.199103,164.221568 609.926457,202.695894 C603.076233,207.550777 538.622422,247.142697 530.701345,236.322523 C523.121076,225.967713 526.13991,202.347319 526.672646,190.589229 C528.87713,142.011642 566.344395,80.6518032 596.163229,43.6400516 C599.707623,39.2397516 643.027803,-2.31065161 648.530942,16.0649581 C656.150673,41.5072806 633.696861,65.3989871 621.675336,84.9999968 C591.729148,133.832726 551.226906,169.523848 505.187444,202.695894 C499.212556,207.000965 447.899552,246.190406 438.04843,236.322523 C429.486996,227.746519 458.041256,169.243552 464.56861,171.421242 C468.278027,172.661016 457.906726,187.338865 457.519283,187.899458 C451.716592,196.295784 429.998206,225.029797 441.741704,236.322523 C462.330045,256.121177 492.073543,227.110461 507.201794,215.808752 C528.18296,200.137287 541.748879,178.834732 558.565022,159.316374 C585.284305,128.302255 615.711211,102.453861 631.411659,63.4800323 C636.209865,51.5674194 658.073543,18.6559065 649.874439,4.96808065 C649.330942,4.0589129 643.716592,0.826516129 642.825112,2.61430645 C640.270852,7.73151935 650.416143,19.7070194 650.545291,25.8160516 C650.853812,40.3124258 642.70852,53.9930645 634.767713,65.8338065 C608.520179,104.967548 582.344395,141.9236 546.143498,172.431029 C521.75426,192.982532 497.854709,212.450581 468.597309,225.561642 C464.796413,227.264984 444.652915,234.488016 441.404484,229.933194 C432.527354,217.481548 451.95157,193.104713 457.519283,183.19191 C457.549776,183.13621 463.103139,174.960887 463.897758,174.11281 C465.512108,172.387906 471.24843,168.445784 469.939013,170.413252 C461.01704,183.818984 434.864574,211.566568 443.083408,229.933194 C452.581166,251.154894 496.13991,219.698768 504.852018,213.118981 C550.717489,178.486158 615.869058,115.406806 635.775785,60.7884645 C638.475336,53.3821613 654.920179,7.49614194 644.839462,1.60631613 C629.944395,-7.09725806 604.837668,33.9392677 599.519283,42.6302645 C572.010762,87.5891484 545.013453,132.325232 533.386547,184.1999 C531.949776,190.616181 518.880717,218.830926 523.987444,225.225645 C528.199103,230.499177 527.273543,198.415977 527.343498,197.650552 C528.760538,182.338442 533.856502,166.751426 538.758744,152.255052 C553.408072,108.929435 528.432287,185.718174 544.464574,134.096852 C545.515695,130.711729 548.141704,120.477303 547.822422,124.007965 C545.298655,151.811248 529.784753,174.878235 528.686996,204.039881 C528.441256,210.585529 524.921973,228.422106 530.701345,233.294958 C548.430493,248.251306 575.6287,226.672048 589.784753,218.164323 C635.352466,190.776094 674.911211,144.011452 706.943498,102.486203 C722.249327,82.6444258 730.455605,60.5548839 741.183857,38.5947097 C750.459193,19.6099935 749.901345,14.3813806 748.570404,14.0471806 C705.478027,3.25575484 670.746188,93.3945258 658.938117,123.335971 C653.678924,136.671629 647.539013,149.209519 641.81704,162.342142 C637.886996,171.363745 639.682511,166.789158 637.117489,174.784803 C636.403587,177.012803 636.148879,183.603371 635.103139,181.510129 C630.742601,172.774213 643.296861,153.970971 646.516592,146.873713 C664.633184,106.951187 672.398206,68.6601323 705.935426,37.9227161 C711.345291,32.9654161 733.289686,4.79379355 745.212556,16.7369516 C754.487892,26.028071 722.941704,78.2962323 717.350673,88.6995548 C690.948879,137.812581 647.601794,180.778842 603.212556,214.128768 C589.006278,224.79981 562.608072,251.88079 541.443946,243.047848 C531.852915,239.044635 526.360538,191.076155 533.721973,185.545684 C537.040359,183.053558 534.394619,193.834203 534.394619,197.986548 C534.394619,208.521035 533.104933,219.434642 534.057399,229.933194 C535.187444,242.379448 556.098655,241.495435 564.606278,240.020284 C582.590135,236.902881 598.373094,213.891594 611.605381,202.695894 C627.849327,188.946977 647.980269,180.381755 663.302242,165.031913 C672.704933,155.613223 679.696861,144.309716 688.478924,134.432848 C712.321076,107.61779 741.540807,82.9894065 745.212556,44.9840387 C745.67713,40.1866516 748.647534,21.1642032 743.870852,17.7467387 C729.442152,7.42247419 708.389238,43.7927774 702.579372,51.3733677 C670.084305,93.7628645 645.026009,133.550632 636.782063,187.227465 C634.871749,199.670126 624.821525,229.798435 640.810762,238.3403 C678.559641,258.507294 716.123767,207.401645 743.870852,190.253232 C747.93722,187.739545 768.157848,163.562152 791.203587,157.273442 C796.995516,155.692281 768.731839,163.226155 764.012556,166.0417 C745.526457,177.073894 728.252915,188.997287 710.636771,201.35011 C692.172197,214.295868 667.616143,231.562868 668.001794,231.950971 C669.46009,233.409952 691.008072,213.402871 692.507623,212.11099 C711.30583,195.923852 731.243049,181.391542 752.599103,168.731471 C753.865471,167.980419 800.808969,148.677674 799.503139,147.013861 C797.596413,144.582826 763.540807,162.189416 763.33991,162.342142 C744.593722,176.701961 729.67713,192.296165 716.678027,212.11099 C714.841256,214.912161 705.757848,227.446458 708.957848,231.614974 C726.175785,254.035123 787.619731,194.294177 797.582063,182.855913 C803.210762,176.392916 809.2,170.183265 814.367713,163.351929 C821.73991,153.602632 812.274439,166.451365 818.089686,158.922881 C822.945291,152.637765 821.300448,148.828603 820.195516,149.013671 C812.165022,150.354065 811.625112,171.6674 808.324664,177.138577 C798.913004,192.741765 782.179372,205.915713 767.704036,216.482542 C756.313901,224.798013 745.282511,230.103887 731.449327,232.622965 C731.268161,232.655306 723.051121,234.175377 722.721076,233.294958 C712.791031,206.770977 739.698655,181.486771 759.64843,169.403465 C760.742601,168.740455 800.234978,144.884684 806.536323,150.271413 C810.719283,153.846994 777.994619,155.376048 773.411659,157.298597 C766.573991,160.166248 760.331839,164.298829 753.940807,168.059477 C730.496861,181.851516 723.64843,189.656703 722.050224,215.808752 C721.854709,218.999823 719.311211,230.402152 721.042152,234.304745 C725.53722,244.433161 756.24574,227.353026 759.64843,224.889648 C775.476233,213.424432 794.315695,201.351906 807.989238,187.227465 C815.12287,179.857097 819.223318,157.388435 827.458296,153.263042 C830.70852,151.636961 820.669058,169.831097 820.073543,171.421242 C817.255605,178.951523 808.312108,211.873816 808.441256,218.295487 C808.713901,231.71739 807.426009,246.853416 828.068161,236.787887 C834.353363,233.72259 871.426009,209.60449 877.13722,205.590497 C886.53991,198.980165 896.107623,192.95019 891.169507,188.814016 C887.524664,185.761297 873.935426,197.068397 872.704933,198.079981 C855.512108,212.202626 825.95157,236.667503 803.018834,237.817439 C786.984753,238.620597 811.287892,191.697839 813.695067,182.855913 C814.843049,178.638884 815.897758,174.923155 818.394619,171.421242 C818.487892,171.291874 821.429596,166.0417 821.081614,166.0417 C816.13991,166.0417 810.373094,181.066326 807.652018,184.1999 C798.875336,194.310348 735.547982,244.767361 722.38565,237.66651 C707.250224,229.503765 731.668161,195.012887 738.163229,189.243445 C752.234978,176.745084 741.587444,185.466626 752.934529,176.130587 C754.70852,174.66981 760.220628,170.970252 757.969507,171.421242 C736.408969,175.740687 704.776682,246.283839 744.206278,235.312735 C767.203587,228.914423 794.407175,203.448742 806.64574,183.527906 C808.15426,181.073513 820.041256,164.679745 824.102242,166.713694 C828.507623,168.920132 821.250224,176.261752 818.731839,180.500342 C815.646637,185.693019 796.473543,222.435255 805.775785,228.423903 C823.347085,239.739987 847.773991,219.925161 861.474439,211.444387 C868.988341,206.792539 880.852018,194.635565 877.813453,192.607006 C874.812556,190.601806 852.783857,206.406232 845.359641,212.393084 C838.285202,218.096045 806.834081,242.505223 803.960538,233.294958 C798.839462,216.879629 808.507623,195.55731 817.052915,182.182123 C820.643946,176.560016 822.478924,171.536235 826.434081,166.253719 C827.967713,164.205397 829.872646,158.231123 827.415247,158.933661 C799.135426,167.028129 789.833184,216.076471 749.576682,229.2612 C747.334529,229.994284 719.189238,240.244881 717.686099,233.968748 C712.073543,210.546 738.669058,189.534523 752.934529,174.784803 C756.453812,171.146335 761.375785,167.250929 765.35426,164.023923 C767.669955,162.146294 775.404484,160.315381 772.740807,158.980377 C767.765022,156.488252 749.867265,176.678603 747.226906,178.820358 C727.978475,194.427139 679.327354,243.455716 651.217937,236.658519 C629.800897,231.480216 630.165022,196.847394 634.432287,181.174132 C637.467265,170.026945 644.880717,160.416 649.203587,149.901277 C664.63139,112.366665 673.097758,77.7572 697.544395,44.3120452 C702.640359,37.3387645 732.866368,2.91796129 745.212556,14.0471806 C754.254709,22.1991452 727.083408,71.4181806 723.056502,80.2924484 C696.258296,139.350619 655.956951,180.23981 600.190135,211.774994 C586.021525,219.78681 554.866368,244.107945 536.408969,236.322523 C511.097758,225.647887 539.766816,184.156777 548.493274,173.775016 C582.312108,133.547039 616.156054,104.32071 637.790135,55.0729258 C642.012556,45.4583871 658.209865,18.2642097 648.868161,7.65785161 C631.230493,-12.3636032 604.516592,24.9967226 596.834081,36.9147258 C567.64843,82.1826548 542.530942,178.617323 501.83139,207.739439 C493.949776,213.377716 485.388341,218.3997 476.990135,223.207868 C473.029596,225.475397 438.240359,246.220952 436.369507,234.976739 C432.957848,214.471952 443.191031,202.805497 455.169507,187.899458 C459.470852,182.546868 463.103139,177.932752 467.924664,173.103023 C469.660987,171.365542 475.289686,168.499687 472.961435,167.723481 C469.280717,166.494487 462.084305,173.782203 462.218834,177.643471 L462.218834,177.643471 Z" id="Shape"></path>
      <path d="M468.561435,172.086048 C464.624215,179.097061 460.663677,185.985894 456.586547,192.890897 C454.56861,196.308361 451.865471,202.279042 450.224215,206.010942 C440.046637,229.148003 446.581166,210.801142 451.90852,202.261074 C458.086099,192.360848 467.266368,185.233045 473.61435,175.834119 C481.311211,164.435384 468.066368,181.321468 466.317489,185.017432 C464.679821,188.476223 462.948879,191.890094 461.264574,195.327323" id="Shape"></path>
      <path d="M491.95157,122.416023 C489.687892,125.691542 478.249327,147.26541 484.279821,147.718197 C494.762332,148.506981 506.23139,129.126974 501.119283,127.6644 C494.405381,125.741852 483.960538,128.201635 487.46009,137.785629 C490.557848,146.266403 509.58565,140.762884 505.610762,130.474555 C502.26009,121.805119 484.050224,131.649645 489.330942,138.159358 C494.773094,144.868513 501.933632,130.8393 500.932735,130.474555 C496.658296,128.918548 492.999103,134.819155 495.320179,138.159358 C498.918386,143.343052 511.931839,136.833339 508.604484,132.912777 C504.634978,128.233977 492.425112,133.029568 496.254709,136.098458 C501.020628,139.9184 507.752466,130.458384 505.610762,130.100826 C496.570404,128.591535 491.576682,137.839532 491.576682,145.281771" id="Shape"></path>
      <path d="M98.464574,155.020287 C84.1147982,160.317177 70.1165919,168.884197 58.87713,179.287519 C52.109417,185.552871 4.19013453,246.932474 48.8304933,231.077739 C68.0860987,224.239216 90.1183857,207.769984 107.329148,196.748571 C118.114798,189.839974 123.413453,185.094694 133.03139,178.103445 C136.41435,175.647255 144.213453,172.707732 141.89417,169.225584 C139.090583,165.012148 135.286099,174.148745 131.555157,188.165381 C126.855605,205.820484 126.599103,224.199687 122.690583,242.027281 C113.250224,285.113926 93.1390135,327.438739 56.2170404,353.597974 C33.9318386,369.388026 6.99730942,371.114726 6.87892377,370.46609 C4.6529148,358.199513 34.0520179,320.743958 42.0358744,312.166158 C91.9784753,258.512684 135.790135,238.471465 192.416143,197.045039 C204.254709,188.38279 234.830493,172.571177 239.982063,157.091968 C241.426009,152.749165 232.608072,162.507445 229.049327,165.37869 C222.234978,170.876819 221.286099,170.724094 214.868161,177.808774 C200.952466,193.171194 172.127354,218.705152 185.619731,241.436142 C188.093274,245.601065 191.013453,249.992381 196.256502,250.610471 C208.446637,252.046094 212.783857,245.696294 222.254709,239.067994 C240.276233,226.456435 294.419731,179.867877 286.365919,150.285787 C283.811659,140.904829 246.859193,152.3395 255.049327,170.11319 C260.966816,182.958329 306.050224,160.920894 319.065471,156.824248 C325.042152,154.943026 333.983857,150.792477 339.92287,148.753139 C342.839462,147.750539 350.478924,144.300732 347.395516,144.300732 C338.642152,144.300732 316.735426,195.817842 312.66009,202.963613 C308.995516,209.385284 305.553363,215.702742 302.615247,222.496345 C301.646637,224.731532 299.955157,231.738952 299.955157,229.302526 C299.955157,221.172123 311.207175,211.237758 315.61435,205.9229 C337.370404,179.681013 366.86278,162.099577 400.701345,157.091968 C405.072646,156.445129 432.190135,149.867139 436.744395,154.429148 C436.90583,154.590858 405.818834,159.373871 404.541704,159.754787 C387.178475,164.952855 366.669058,171.205629 351.361435,181.062732 C337.634081,189.902861 325.302242,202.483874 315.022422,215.097229 C313.015247,217.560606 308.692377,224.370381 307.341704,227.527313 C305.947982,230.781271 304.977578,241.425361 304.977578,237.883919 C304.977578,213.940106 324.586547,189.924423 337.180269,171.000797 C338.281614,169.347765 351.316592,150.240868 347.521076,146.438894 C346.435874,145.351845 324.514798,157.947232 322.104036,158.852806 C306.312108,164.785755 275.352466,172.980842 258.593722,166.266297 C243.486996,160.212965 285.955157,129.95349 291.682511,145.254819 C300.776682,169.543613 250.303139,220.51091 233.481614,231.077739 C226.627803,235.384606 215.400897,243.08019 206.301345,240.548535 C202.624215,239.524374 200.136323,234.240061 198.0287,231.668877 C183.556951,214.020961 187.478027,199.84621 202.460987,182.839742 C208.441256,176.047935 216.975785,170.99361 224.026906,165.37869 C224.113004,165.310413 235.750673,156.337323 235.549776,156.204361 C232.380269,154.087761 218.749776,167.423419 216.936323,168.634445 C201.485202,178.951523 187.666368,191.94759 172.916592,203.260081 C133.142601,233.763916 68.258296,277.035629 36.4233184,315.125445 C24.8179372,329.009119 10.3748879,342.937713 5.40089686,360.99709 C-6.8161435,405.361242 41.5390135,369.120306 54.7408072,354.19091 C92.5991031,311.373781 105.253812,275.479623 121.804484,223.087484 C126.911211,206.927297 142.021525,185.121645 137.463677,166.857435 C137.058296,165.238542 131.329148,172.993419 131.259193,173.072477 C125.208969,179.86069 119.004484,186.402745 112.64574,192.901677 C91.3130045,214.707329 67.1838565,239.395006 33.7632287,231.668877 C20.2206278,228.538897 31.8762332,206.629032 36.7174888,202.076006 C52.6098655,187.132235 74.8089686,173.253952 93.7381166,162.419403 C97.3183857,160.369284 111.750673,159.765568 113.827803,157.683106 C114.606278,156.903306 111.678924,157.131497 110.577578,157.091968 C108.082511,157.002129 98.8358744,157.057829 96.9883408,157.683106 C89.6035874,160.189606 83.0278027,164.674355 76.3067265,168.634445 C56.1632287,180.503935 17.4493274,211.444387 26.0825112,240.843206 C29.1497758,251.289652 61.3399103,233.868129 64.4896861,231.668877 C85.0457399,217.325229 103.721973,198.311765 121.21435,180.471594 C122.511211,179.149168 135.903139,160.938861 137.167713,160.938861 C137.41704,160.938861 136.913004,174.312252 136.871749,174.849487 C135.775785,189.683655 131.429596,204.244713 129.191031,218.944123 C119.969507,279.504397 99.8690583,330.426774 44.9901345,364.547516 C37.8618834,368.980158 12.7479821,394.904016 1.85650224,387.632471 C-2.69775785,384.590532 2.51300448,370.277429 3.92466368,366.619197 C10.3802691,349.882245 20.1721973,327.853794 32.87713,315.125445 C80.9381166,266.982677 133.713004,229.593603 188.279821,189.349455 C194.932735,184.442465 242.878924,157.259068 248.220628,151.663913 C250.317489,149.468255 238.315695,149.647932 236.13991,151.764532 C231.727354,156.058823 225.851121,162.308003 221.36861,166.266297 C207.002691,178.949726 159.716592,226.438468 182.369507,249.129929 C193.467265,260.246571 213.029596,243.092768 221.36861,237.589248 C247.895964,220.074294 287.467265,188.619965 290.206278,152.948606 C291.723767,133.182294 240.01435,169.987416 253.867265,176.6247 C273.180269,185.87629 302.486099,168.941694 319.949776,162.918906 C340.952466,155.677906 351.476233,149.9444 351.244843,149.82761 C346.043049,147.224084 341.189238,156.348103 339.544395,158.867181 C328.342601,176.029968 315.169507,193.444303 306.159641,211.841474 C301.752466,220.841516 303.517489,217.804968 300.547085,226.046771 C299.347085,229.3726 296.410762,239.34829 296.410762,235.812239 C296.410762,205.770174 368.130942,157.153058 395.38296,151.764532 C402.4,150.377423 437.608969,144.428303 442.356951,152.357468 C444.437668,155.828835 434.286996,153.029461 430.243946,152.948606 C426.911211,152.882126 411.704036,152.964777 409.564126,153.245074 C391.711211,155.586271 371.377578,164.667168 356.383857,174.553019 C340.290583,185.164768 323.067265,198.568703 313.840359,215.984835 C311.103139,221.155952 308.911211,227.114055 307.637668,232.852952 C307.054709,235.481632 306.455605,243.536571 306.455605,240.843206 C306.455605,216.261539 332.267265,193.521565 341.90852,171.888403 C344.523767,166.020139 354.41435,149.001094 350.7713,141.702597 C349.483408,139.122429 341.750673,146.482016 341.587444,146.627555 C337.44574,150.332503 329.051121,158.064023 324.269058,160.789729 C308.740807,169.640639 284.089686,183.813594 265.09417,178.103445 C234.794619,168.99919 289.912108,121.905739 292.274439,151.469861 C294.597309,180.566823 224.921973,246.932474 192.710314,229.006058 C185.490583,224.988471 188.430493,209.9333 190.938117,204.442358 C202.107623,179.991855 225.709417,169.317219 243.230493,151.764532 C245.867265,149.125071 235.429596,152.104123 232.299552,154.132681 C227.652018,157.145871 223.773991,161.222752 219.300448,164.491084 C201.61435,177.408094 185.436771,190.09871 169.666368,205.329965 C126.927354,246.614445 78.0089686,280.519574 35.2412556,321.931626 C30.3533632,326.664329 -5.30224215,366.879729 2.7426009,376.089994 C9.94798206,384.337187 48.4233184,353.531494 54.1488789,348.567006 C91.3686099,316.293348 109.413453,272.755713 124.758744,227.230845 C127.910314,217.880432 130.430493,175.088458 134.803587,170.706126 C135.872646,169.635248 134.317489,175.007603 134.213453,175.144158 C132.007175,178.035168 129.576682,180.750094 127.12287,183.430881 C121.78296,189.266803 115.741704,195.206939 109.987444,200.595465 C92.6762332,216.805961 70.6188341,231.977923 48.2403587,239.9556 C43.8618834,241.516997 23.5210762,247.839845 19.2878924,242.620216 C13.0206278,234.894087 21.9264574,221.41289 25.7865471,214.800761 C38.3049327,193.361652 66.7318386,177.426061 88.1255605,165.675158 C95.2520179,161.759987 103.173094,160.092581 111.169507,159.460116 C114.611659,159.187006 124.78565,157.774742 121.510314,158.867181 C107.485202,163.551371 96.3623318,164.805519 82.2152466,172.777806 C65.2466368,182.338442 67.7775785,181.395135 51.490583,194.085752" id="Shape"></path>
    </g>

    <g class="bang" transform="translate(981.431227, 112.364152)">
      <path d="M121.488472,44.6150816 C114.921474,64.4440068 106.230385,82.8952295 97.2134294,101.65862 C77.0435056,143.636921 89.5396785,113.481471 72.9383867,158.377504 C69.6419722,167.29511 66.0634053,176.104497 62.9795986,185.105347 C39.8073346,252.754281 68.0444331,177.03892 71.0726041,169.13274 C82.8395521,138.413306 95.0714555,107.541951 108.41806,77.5384229 C110.947496,71.8527991 123.829145,37.9991965 133.31503,33.859846 C141.229206,30.4051844 127.914394,50.9812321 123.978169,58.9581706 C119.495522,68.0485091 113.95381,76.5186734 109.039987,85.3613584 C99.8998384,101.812623 54.2587045,175.623758 58.622132,193.90641 C60.5713681,202.07273 69.5287138,181.430087 73.8722714,174.350112 C79.9226525,164.483515 84.8603198,153.917661 90.3682529,143.707679 C108.95256,109.258876 128.5701,75.9255538 151.366824,44.2904267 C156.695928,36.894121 162.722465,30.074286 168.172775,22.7757931 C171.137363,18.8050134 179.580078,6.53680247 176.885721,10.7156943 C152.310643,48.8480826 127.334193,86.468515 103.438666,125.129508 C76.7673142,168.283643 90.9862064,142.87315 71.3825744,181.846311 C69.4571822,185.675574 67.1483012,189.300888 65.4692956,193.255019 C65.046067,194.251876 64.2989592,197.134229 65.1593253,196.514055 C80.1134034,185.746333 98.6659183,146.315325 108.41806,131.974317 C136.565744,90.5828921 164.530625,33.10648 203.650461,1.58789566 C212.138877,-5.25066941 190.399232,19.2129132 183.732885,27.9910835 C176.098874,38.0449812 168.498641,48.1300957 161.013654,58.3067796 C137.163827,90.7285706 113.679606,123.495828 90.0562956,156.094514 C84.3099239,164.023587 78.9530019,172.254422 73.2503439,180.216793 C70.2360818,184.42482 66.9019146,188.374789 63.9134833,192.603628 C63.0570911,193.816922 60.3369034,196.147778 61.7357435,196.514055 C73.6258848,199.627413 79.0583123,178.308405 86.9446711,168.481349 C116.753478,131.343737 145.819151,93.3424592 176.885721,57.3286525 C184.656835,48.3215589 192.529285,39.3519255 201.160764,31.2522008 C205.553996,27.1294992 210.801634,24.1201976 215.788976,20.8216201 C216.732796,20.1952025 219.294024,18.4200059 218.900601,19.5167569 C214.805417,30.9546004 202.303283,36.6860089 194.00363,45.2685537 C163.932541,76.3625893 136.663106,108.630377 109.351944,142.404897 C94.1812845,161.166207 82.0030298,174.724713 68.8928774,194.559882 C65.7435001,199.323569 63.2259852,204.515967 60.4899015,209.552281 C59.8024034,210.819684 57.4895484,214.311806 58.622132,213.464789 C86.6664926,192.485004 110.091104,159.782261 133.938944,133.930571 C139.442903,127.961914 144.863409,121.905851 150.432939,116.00171 C153.268372,112.994489 156.292569,110.189137 159.145885,107.200647 C160.133418,106.16633 163.092045,103.105 161.947539,103.941611 C139.31971,120.476121 121.796455,142.569306 102.504781,162.941404 C97.0286395,168.722759 91.0974778,174.027538 85.6988291,179.890057 C73.4450688,193.20091 72.4336915,196.139453 73.8722714,195.535928 C76.2030094,194.559882 78.229738,192.928283 80.4074778,191.625501" id="Shape"></path>
      <path d="M42.4400948,254.211066 C62.9299238,254.211066 21.8270725,284.549654 14.7414703,277.679873 C-2.61686431,260.845681 35.6604889,230.361414 51.4649982,244.431876 C71.0606822,261.875836 16.0965967,303.208989 9.76207622,291.044834 C2.31881599,276.751692 21.8449554,258.196414 30.9254944,251.60134 C36.4930372,247.559802 48.8501209,240.581802 50.8430707,247.364176 C55.2700818,262.433577 19.7248383,281.180319 17.5411376,278.004527 C7.14322491,262.876856 42.1102547,237.820153 46.4856041,245.734658 C53.642738,258.681315 19.8738625,272.185712 11.3178885,269.530201 C-5.2039238,264.402318 31.8454703,233.464366 42.4400948,242.148886 C52.5041934,250.398451 26.2660056,270.152456 25.0122156,271.159719 C10.4932881,282.824405 9.37858737,279.783886 9.45011897,278.982655 C10.4336784,267.98809 10.5886636,266.585414 20.6547491,260.729138 C23.8597621,258.864454 33.1032342,255.622066 31.547422,259.09962 C23.1206022,277.927526 0.941832715,287.952288 -0.196711896,280.938909 C-3.96801673,257.732323 29.8882863,239.961627 35.9048885,258.448229 C43.2408513,280.988856 13.2651376,291.608818 10.3840037,280.612173 C5.4522974,261.798835 43.47929,241.645255 54.88858,255.187112 C64.9169127,267.091127 15.4051245,293.515126 5.09265242,285.502808 C-13.0982305,271.36575 47.753303,238.561033 49.9091859,245.083267 C53.5851153,256.20478 28.340422,284.383165 17.8530948,276.050354 C2.53142379,263.875794 37.3971171,227.5519 31.547422,264.314911" id="Shape"></path>
    </g>
  </g>
</svg>
